# xmcd
#
# Track frame offsets:
#	150
#	16898
#	35005
#	51043
#	65715
#	83078
#	98848
#	119568
#	139075
#	160633
#
# Disc length: 2416 seconds
#
# Revision: 3
# Processed by: cddbd v1.5.2PL0 Copyright (c) Steve Scherf et al.
# Submitted via: EZCDAudioConverter 8.0.2.1
#
DISCID=80096e0a
DTITLE=Thái Châu - Mười Năm Yêu Em
DYEAR=1989
DGENRE=
TTITLE0=Hoa sứ nhà nàng
TTITLE1=Tình như mây khói
TTITLE2=Hát cho người kỹ nữ
TTITLE3=Tình vỗ cánh bay
TTITLE4=Bài cuối cho người tình
TTITLE5=Người tình La Lan
TTITLE6=Vùng ngoại ô
TTITLE7=Rừng chưa thay lá
TTITLE8=Đôi mắt người xưa
TTITLE9=Mười Năm Yêu Em
EXTD=
EXTT0=
EXTT1=
EXTT2=
EXTT3=
EXTT4=
EXTT5=
EXTT6=
EXTT7=
EXTT8=
EXTT9=
PLAYORDER=
